# xmcd
#
# Track frame offsets: 
#        150
#        15642
#        31310
#        43055
#        57387
#        72790
#        87522
#        102810
#        116385
#        129835
#        142885
#        157605
#        171185
#        184580
#        198772
#        213960
#        229562
#        243955
#        259600
#        273980
#        288335
#        302810
#
# Disc length: 4246 seconds
#
# Revision: 4
# Processed by: cddbd v1.5.2PL0 Copyright (c) Steve Scherf et al.
# Submitted via: ExactAudioCopy v0.95a3
#
DISCID=1d109416
DTITLE=Bessie Smith - Queen of the Blues
DYEAR=1900
DGENRE=
TTITLE0=Down Hearted Blues
TTITLE1=Gulf Coast Blues
TTITLE2=Nobody in Town Can Bake a Sweet Jelly Roll, Like Mine
TTITLE3=Jail House Blues
TTITLE4=Graveyard Dream Blues
TTITLE5=Cemetery Blues
TTITLE6=Frosty Morning Blues
TTITLE7=Haunted House Blues
TTITLE8=Easy Come, Easy Go Blues
TTITLE9=Follow the Deal on Down
TTITLE10=Sinful Blues
TTITLE11=Lady Luck Blues
TTITLE12=Reckless Blues
TTITLE13=Cold in the Hand Blues
TTITLE14=Mean Old Bedbug Blues
TTITLE15=The Yellow Dog Blues
TTITLE16=Sweet Mistreater
TTITLE17=Empty Bed Blues
TTITLE18=Blue Spirit Blues
TTITLE19=Black Mountain Blues
TTITLE20=In the House Blues
TTITLE21=Nashvill Woman's Blues
EXTD=
EXTT0=
EXTT1=
EXTT2=
EXTT3=
EXTT4=
EXTT5=
EXTT6=
EXTT7=
EXTT8=
EXTT9=
EXTT10=
EXTT11=
EXTT12=
EXTT13=
EXTT14=
EXTT15=
EXTT16=
EXTT17=
EXTT18=
EXTT19=
EXTT20=
EXTT21=
PLAYORDER=
